<svg fill="none" viewBox="0 0 24 24">
  <path fill="#E5E5E5" d="M0 0h24v24H0z"/>
  <g clip-path="url(#a)">
    <path fill="#fff" d="M-660-3304H780V164H-660z"/>
    <path fill="#2E2F42" d="M-660-148H780v312H-660z"/>
    <path fill="#4D5AE5" d="M32 12c0 5.5228-2.2386 10.5228-5.8579 14.1421C22.5228 29.7614 17.5228 32 12 32c-5.52285 0-10.52285-2.2386-14.14214-5.8579C-5.76142 22.5228-8 17.5228-8 12-8 6.47715-5.76142 1.47715-2.14214-2.14214 1.47715-5.76142 6.47715-8 12-8c5.5228 0 10.5228 2.23858 14.1421 5.85786C29.7614 1.47715 32 6.47715 32 12Z"/>
    <g clip-path="url(#b)">
      <path fill="#F4F4FD" d="M15.997 3.985h2.191V.169C17.81.117 16.51 0 14.996 0c-3.159 0-5.32302 1.987-5.32302 5.639V9h-3.486v4.266h3.486V24H13.947V13.267h3.345l.531-4.266h-3.877V6.062c.001-1.233.333-2.077 2.051-2.077Z"/>
    </g>
  </g>
  <defs>
    <clipPath id="a">
      <path fill="#fff" d="M-660-3304H780V164H-660z"/>
    </clipPath>
    <clipPath id="b">
      <path fill="#fff" d="M0 0h24v24H0z"/>
    </clipPath>
  </defs>
</svg>
